<svg xmlns="http://www.w3.org/2000/svg" viewBox="0 0 132.39 154.5">
  <defs>
    <style>.cls-1{isolation:isolate;}.cls-2{fill:#fff;}.cls-3{fill:#392722;}.cls-4{fill:#a1b41d;}.cls-5{opacity:0.6;}.cls-6,.cls-7,.cls-8{fill:#c3c800;}.cls-6,.cls-8{mix-blend-mode:multiply;}.cls-8{opacity:0.75;}</style>
  </defs>
  <g class="cls-1">
    <g id="Calque_2" data-name="Calque 2">
      <g id="Calque_1-2" data-name="Calque 1">
        <rect class="cls-2" width="132.39" height="154.5" rx="5.75"/>
        <path class="cls-3" d="M19.84,93a10.43,10.43,0,0,1-1.35-.09,4.65,4.65,0,0,1-1.07-.24V99.2H13.79V77.52a9.17,9.17,0,0,1,2.38-.87,14.88,14.88,0,0,1,3.22-.3,7.17,7.17,0,0,1,5.54,2.16,8.47,8.47,0,0,1,2,6,9.23,9.23,0,0,1-2,6.2A6.43,6.43,0,0,1,19.84,93ZM19.3,78.54a5.1,5.1,0,0,0-1.88.32V90.55a4.06,4.06,0,0,0,1.61.27,3.62,3.62,0,0,0,3.19-1.61,8,8,0,0,0,1.1-4.56,9.12,9.12,0,0,0-.92-4.59A3.33,3.33,0,0,0,19.3,78.54Z"/>
        <path class="cls-3" d="M30.38,92.79V69.28H34V92.79Z"/>
        <path class="cls-3" d="M41,86.05q.45,4.5,4.4,4.5a9.88,9.88,0,0,0,2.31-.24,7.39,7.39,0,0,0,1.77-.66L50.31,92a9.12,9.12,0,0,1-2.24.82,13.35,13.35,0,0,1-3.1.31,7.07,7.07,0,0,1-5.48-2.18,8.89,8.89,0,0,1-2-6.23,9.27,9.27,0,0,1,1.85-6.13,6.22,6.22,0,0,1,5-2.2,5.77,5.77,0,0,1,4.84,2.08q1.63,2.08,1.63,6.19Zm3.29-7.45A2.93,2.93,0,0,0,41.68,80a7.7,7.7,0,0,0-.93,4.22l6.68-1a6,6,0,0,0-.82-3.48A2.79,2.79,0,0,0,44.25,78.6Z"/>
        <path class="cls-3" d="M60,93.09a5.58,5.58,0,0,1-4.61-2.23,9.69,9.69,0,0,1-1.77-6.18,9.35,9.35,0,0,1,1.81-6.11A5.69,5.69,0,0,1,60,76.35a7,7,0,0,1,2.28.31,4.59,4.59,0,0,1,1.46.8L63,79.52a3.86,3.86,0,0,0-.9-.49,3.56,3.56,0,0,0-1.26-.19,2.87,2.87,0,0,0-2.67,1.51,8.64,8.64,0,0,0-.87,4.27,8.51,8.51,0,0,0,.92,4.27,2.84,2.84,0,0,0,2.56,1.57A4,4,0,0,0,62,90.29a2.67,2.67,0,0,0,.94-.55L63.75,92a3.78,3.78,0,0,1-1.48.8A7.73,7.73,0,0,1,60,93.09Z"/>
        <path class="cls-3" d="M72.74,93.09a5.82,5.82,0,0,1-5-2.32,9.78,9.78,0,0,1-1.74-6,9.94,9.94,0,0,1,1.71-6.08,6.58,6.58,0,0,1,10,0,10,10,0,0,1,1.71,6.1,9.93,9.93,0,0,1-1.71,6.05A5.82,5.82,0,0,1,72.74,93.09Zm0-14.43a2.41,2.41,0,0,0-2.43,1.64,12.12,12.12,0,0,0-.66,4.41A11.31,11.31,0,0,0,70.33,89a2.63,2.63,0,0,0,4.85,0,11.69,11.69,0,0,0,.65-4.29,12.6,12.6,0,0,0-.63-4.44A2.4,2.4,0,0,0,72.74,78.66Z"/>
        <path class="cls-3" d="M88.11,93a4.21,4.21,0,0,1-3.34-1.25,4.59,4.59,0,0,1-1.1-3.12V79H81.88V76.65h1.79V73.08l3.66-1v4.59H90V79H87.33v9.43q0,2.1,1.77,2.1a3.11,3.11,0,0,0,.86-.15v2.27a3.17,3.17,0,0,1-.76.23A5.52,5.52,0,0,1,88.11,93Z"/>
        <path class="cls-3" d="M99.28,93.12a7,7,0,0,1-4.72-1.37A5.19,5.19,0,0,1,93,87.67v-11h3.65V87.86a2.88,2.88,0,0,0,.66,2,2.68,2.68,0,0,0,2.07.73,4.91,4.91,0,0,0,2.43-.54V76.65h3.65V91.84a10,10,0,0,1-2.65.92A16.22,16.22,0,0,1,99.28,93.12Z"/>
        <path class="cls-3" d="M112.85,93.06a9.58,9.58,0,0,1-2.53-.31,5.92,5.92,0,0,1-1.93-.84l1-2.35a4.11,4.11,0,0,0,1.28.66,5.07,5.07,0,0,0,1.75.3,2.57,2.57,0,0,0,1.8-.63,2.13,2.13,0,0,0,.69-1.65,2.26,2.26,0,0,0-.53-1.61,6.58,6.58,0,0,0-2.25-1.22,5.21,5.21,0,0,1-2.5-1.78,4.46,4.46,0,0,1-.78-2.6,4.41,4.41,0,0,1,1.43-3.31,5.08,5.08,0,0,1,3.7-1.37,8.65,8.65,0,0,1,2.33.28,6.32,6.32,0,0,1,1.86.86l-.9,2.12a4.2,4.2,0,0,0-1.09-.62,3.83,3.83,0,0,0-1.48-.27,2.3,2.3,0,0,0-1.7.61,2,2,0,0,0-.61,1.51,2,2,0,0,0,.6,1.5,7.92,7.92,0,0,0,2.3,1.26,5.64,5.64,0,0,1,2.54,1.83,4.77,4.77,0,0,1-.75,6.21A6,6,0,0,1,112.85,93.06Z"/>
        <path class="cls-4" d="M65.66,116.29a2.79,2.79,0,0,1-1.87-.73l-.09-.1-5.11-6.19a.71.71,0,0,0-.46-.17h-44v-2h44a2.74,2.74,0,0,1,1.86.73l.09.1,5.11,6.2a.74.74,0,0,0,.93,0l5.2-6.3a2.76,2.76,0,0,1,1.87-.73h45.08v2H73.19a.71.71,0,0,0-.46.17l-5.21,6.29A2.75,2.75,0,0,1,65.66,116.29Z"/>
        <g class="cls-5">
          <path class="cls-3" d="M37.42,134.13v-7a1.54,1.54,0,0,0-1.78-1.65,3.93,3.93,0,0,0-.84.07,3.65,3.65,0,0,0-.7.21v8.37H31.87v-9.34a7.08,7.08,0,0,1,1.68-.53,12.2,12.2,0,0,1,2.18-.19,4.41,4.41,0,0,1,3,.85,2.81,2.81,0,0,1,.93,2.17v7Z"/>
          <path class="cls-3" d="M45.58,134.31a4.89,4.89,0,0,1-3-.78,2.65,2.65,0,0,1-1-2.22,2.76,2.76,0,0,1,1.44-2.6,10.79,10.79,0,0,1,4.07-1.05v-.53a1.44,1.44,0,0,0-.51-1.26,2.4,2.4,0,0,0-1.46-.37,4.83,4.83,0,0,0-1.28.16,6.12,6.12,0,0,0-1.19.44l-.52-1.28a9.06,9.06,0,0,1,1.48-.53,7.92,7.92,0,0,1,1.92-.22,4.09,4.09,0,0,1,2.65.8,3.13,3.13,0,0,1,1,2.61v6.12a7.19,7.19,0,0,1-1.53.51A10,10,0,0,1,45.58,134.31Zm1.49-5.59a6.59,6.59,0,0,0-2.6.74,1.92,1.92,0,0,0-.83,1.77,1.72,1.72,0,0,0,.54,1.39,2.38,2.38,0,0,0,1.54.44,3.07,3.07,0,0,0,1.35-.27Z"/>
          <path class="cls-3" d="M54.81,134.24a2.58,2.58,0,0,1-2-.77,2.85,2.85,0,0,1-.67-1.91v-5.88H51v-1.42H52.1v-2.19l2.24-.62v2.81H56v1.42H54.34v5.77c0,.86.36,1.28,1.08,1.28a2,2,0,0,0,.53-.09V134a1.78,1.78,0,0,1-.47.14A3.53,3.53,0,0,1,54.81,134.24Z"/>
          <path class="cls-3" d="M61.37,134.31a4.87,4.87,0,0,1-3-.78,2.63,2.63,0,0,1-1-2.22,2.75,2.75,0,0,1,1.45-2.6,10.73,10.73,0,0,1,4.06-1.05v-.53a1.46,1.46,0,0,0-.5-1.26,2.42,2.42,0,0,0-1.46-.37,5,5,0,0,0-1.29.16,6.12,6.12,0,0,0-1.19.44l-.51-1.28a9.27,9.27,0,0,1,1.47-.53,7.92,7.92,0,0,1,1.92-.22,4.13,4.13,0,0,1,2.66.8,3.16,3.16,0,0,1,1,2.61v6.12a6.82,6.82,0,0,1-1.53.51A9.87,9.87,0,0,1,61.37,134.31Zm1.48-5.59a6.59,6.59,0,0,0-2.59.74,1.9,1.9,0,0,0-.83,1.77,1.74,1.74,0,0,0,.53,1.39,2.41,2.41,0,0,0,1.55.44,3,3,0,0,0,1.34-.27Z"/>
          <path class="cls-3" d="M70.89,138.25a9.66,9.66,0,0,1-2-.18,4.87,4.87,0,0,1-1.42-.51l.63-1.47a5.07,5.07,0,0,0,1.08.42,4.65,4.65,0,0,0,1.28.18,2.26,2.26,0,0,0,1.73-.58,2.34,2.34,0,0,0,.54-1.65v-.63a3.74,3.74,0,0,1-1.85.37,3.57,3.57,0,0,1-2.88-1.29A5.26,5.26,0,0,1,67,129.39a5.81,5.81,0,0,1,1.21-3.89,4.44,4.44,0,0,1,3.56-1.43,8.85,8.85,0,0,1,1.88.19,4,4,0,0,1,1.33.53v9.47a3.88,3.88,0,0,1-1.08,3A4.11,4.11,0,0,1,70.89,138.25Zm1.89-12.64a2.36,2.36,0,0,0-1.16-.22,2,2,0,0,0-1.85,1,5.67,5.67,0,0,0-.6,2.88,5.24,5.24,0,0,0,.56,2.72,1.94,1.94,0,0,0,1.78.9,2.44,2.44,0,0,0,1.27-.31Z"/>
          <path class="cls-3" d="M81.06,134.31a3.55,3.55,0,0,1-3-1.42A6,6,0,0,1,77,129.2a6.08,6.08,0,0,1,1-3.72,4,4,0,0,1,6.11,0,7.1,7.1,0,0,1,0,7.43A3.55,3.55,0,0,1,81.06,134.31Zm0-8.83a1.49,1.49,0,0,0-1.49,1,7.37,7.37,0,0,0-.4,2.69,7,7,0,0,0,.41,2.62,1.49,1.49,0,0,0,1.48,1,1.47,1.47,0,0,0,1.49-1,7.26,7.26,0,0,0,.39-2.63,7.85,7.85,0,0,0-.38-2.71A1.47,1.47,0,0,0,81.06,125.48Z"/>
          <path class="cls-3" d="M91.49,125.72a3.38,3.38,0,0,0-1-.16,2.06,2.06,0,0,0-1.06.23v8.34H87.17v-9.34a6.43,6.43,0,0,1,1.85-.53,20.08,20.08,0,0,1,2.91-.17Z"/>
          <path class="cls-3" d="M97,134.31a4.89,4.89,0,0,1-3-.78,2.63,2.63,0,0,1-1-2.22,2.75,2.75,0,0,1,1.45-2.6,10.73,10.73,0,0,1,4.06-1.05v-.53a1.43,1.43,0,0,0-.5-1.26,2.42,2.42,0,0,0-1.46-.37,4.83,4.83,0,0,0-1.28.16,6,6,0,0,0-1.2.44l-.51-1.28a9.06,9.06,0,0,1,1.48-.53,7.77,7.77,0,0,1,1.91-.22,4.12,4.12,0,0,1,2.66.8,3.16,3.16,0,0,1,1,2.61v6.12a6.82,6.82,0,0,1-1.53.51A9.8,9.8,0,0,1,97,134.31Zm1.48-5.59a6.59,6.59,0,0,0-2.59.74,1.92,1.92,0,0,0-.83,1.77,1.74,1.74,0,0,0,.53,1.39,2.42,2.42,0,0,0,1.55.44,3,3,0,0,0,1.34-.27Z"/>
        </g>
        <path class="cls-6" d="M112.76,56.41c-.13-.66-.25-1.32-.4-1.95-.06-.27-.13-.53-.2-.78v0a.31.31,0,0,0,0-.08.58.58,0,0,1,0-.1,38.49,38.49,0,0,0-1.48-3.92,11.11,11.11,0,0,0-2.41-3.42c-.33-.33-.68-.65-1-1a38,38,0,0,0-9.61-5.94A62.89,62.89,0,0,0,91,36.81c-1.07-.33-2.16-.65-3.26-1a3.32,3.32,0,0,0-.85-.13,2.39,2.39,0,0,0-1.66.67l-.19.19-.17.21-1.33,1.65-1.8,2.21-.92,1.1a5,5,0,0,1-.89.89c-.11.08-.38.31-.52.16s0-.91.06-1.18c.07-.44.14-.88.19-1.32a25.39,25.39,0,0,0,.16-2.76s0-5.17-1.08-4.21a12,12,0,0,0-1,1.95l0,.06-.85,1.57-.28.52-.28.53C75.52,39.32,74.79,40.68,74,42a1.42,1.42,0,0,1-.72.58.26.26,0,0,1-.15,0,.47.47,0,0,1-.22-.1,1.12,1.12,0,0,1-.21-.18,1.47,1.47,0,0,1-.1-.13,1.65,1.65,0,0,1-.15-.25l-.06-.13a2.47,2.47,0,0,1-.1-.29,16.55,16.55,0,0,1-.53-1.69c-.06-.17-.1-.34-.15-.51a10.76,10.76,0,0,0-.54-1.54,14.71,14.71,0,0,0-1.5-2.61c-.35-.48-.73-1-1.1-1.45l-.29-.31c-.7-.69-1.27-.48-1.84.55a11.72,11.72,0,0,0-1.07,8.13c0,.18.09.36.12.55.19,1.13-.1,1.83-.88,2.12a2,2,0,0,1-.74.14,1.64,1.64,0,0,1-.54-.08,1.88,1.88,0,0,1-1.07-.91c-.61-1.11-1.21-2.19-1.8-3.31-.45-.86-.88-1.7-1.29-2.55-1.51-3.15-2.81-6.39-4.39-9.49l-.06-.09a8.07,8.07,0,0,0-.77-1.1.67.67,0,0,1-.12-.14c-.15-.19-.43-.55-.86-1L52.7,26c-.32-.34-.71-.74-1.16-1.17l-.72-.68L50,23.44c-.58-.49-1.22-1-1.92-1.51a30.82,30.82,0,0,0-3.16-2c-.58-.33-1.18-.64-1.82-.95a28.92,28.92,0,0,0-4.41-1.72c-.66-.21-1.35-.39-2.06-.56l-1.22-.25a33.52,33.52,0,0,0-3.9-.48h-.21c.43.12.86.24,1.28.38s.86.28,1.29.43.85.31,1.27.49.82.34,1.24.53.83.38,1.23.59c.73.36,1.44.76,2.14,1.18l.46.28c.32.19.62.39.93.6s.75.51,1.12.78.64.47,1,.72c.15.11.3.24.45.37s.42.34.64.52l.3.26c.24.2.48.41.72.64s.6.55.88.84.46.45.68.68a2.08,2.08,0,0,1,.21.21c.28.29.57.59.83.9s.6.68.88,1,.58.7.85,1.06.54.7.78,1.06a.35.35,0,0,1,0,.08,35.43,35.43,0,0,1,2.69,4.38c.27.5.53,1,.77,1.55.41.85.77,1.72,1.1,2.6.17.44.34.89.47,1.33s.23.68.34,1c.21.68.41,1.38.58,2.08.1.36.18.71.26,1.07s.2,1,.29,1.43q.26,1.4.42,2.82v.11c0,1-1.18,3.11-2.05,8-.25,1.34-.4,2.56-.5,3.63a13.42,13.42,0,0,1-.13,2.28c-.08,4.48,1,6,1,6a19.29,19.29,0,0,0,5.89-.43,19.09,19.09,0,0,0,9.73-5.36.46.46,0,0,0,.07-.07c.29-.3.58-.62.85-1l.14-.16.19-.22.16-.16a8.47,8.47,0,0,1,1.58-1.3l.45-.27a7.28,7.28,0,0,1,1-.44l.41-.17A6.24,6.24,0,0,1,77.56,58a5.12,5.12,0,0,1,2.33.08,7.77,7.77,0,0,1,1.35.4,5.46,5.46,0,0,1,.67.26,2.85,2.85,0,0,0,.31.12,1.87,1.87,0,0,1,.39.22,3.83,3.83,0,0,1,.42.28l.35.21a1,1,0,0,0,1.08,0c.66-.36,1.08-1,1.69-1.42a.74.74,0,0,0,.13-.08A9.6,9.6,0,0,1,89.65,57a11.26,11.26,0,0,1,5.75.65,10.11,10.11,0,0,1,2.66,1.21l.11,0,.73.35a1.61,1.61,0,0,0,1.28.12.71.71,0,0,0,.37-.32c.09-.15.18-.28.28-.42a7.6,7.6,0,0,1,.66-.74,8,8,0,0,1,1.23-.94c.3-.17.4-.25.74-.44s.46-.22.62-.3a7,7,0,0,1,4.66-.41c.25.06.49.11.73.19l.73.24.37.15c.23.09.47.18.7.29.47.21.91.44,1.35.67l0,0c.16.09.24.16.3.07C112.89,57.08,112.82,56.74,112.76,56.41Z"/>
        <path class="cls-7" d="M57.42,47.83Q57.26,46.41,57,45c-.1-.48-.2-.95-.29-1.43s-.16-.71-.26-1.07c-.17-.7-.37-1.4-.58-2.08-.11-.34-.22-.68-.34-1s-.3-.87-.46-1.3c-.33-.84-.67-1.68-1-2.49-.27-.58-.54-1.15-.83-1.69a35.43,35.43,0,0,0-2.69-4.38.35.35,0,0,0,0-.08c-.25-.35-.51-.71-.78-1.06s-.55-.71-.85-1.06-.58-.69-.88-1-.55-.61-.83-.9a2.08,2.08,0,0,0-.21-.21c-.22-.23-.45-.46-.68-.68s-.58-.57-.88-.84-.48-.44-.72-.64l-.3-.26c-.22-.18-.42-.36-.64-.52s-.3-.26-.45-.37q-.48-.37-1-.72c-.37-.26-.74-.53-1.12-.78s-.62-.41-.93-.6l-.46-.28c-.7-.42-1.42-.81-2.14-1.18-.4-.2-.81-.4-1.23-.59l-1.24-.53-1.27-.49c-.43-.15-.86-.3-1.29-.43L31.37,16a.63.63,0,0,0-.19,0q-1.58-.08-3.27,0l-.78.12-.64.12a18.69,18.69,0,0,0-4.42,1.48c-.23.13-.45.27-.64.4a3.2,3.2,0,0,0-.27.22,2,2,0,0,0-.27.22,9.7,9.7,0,0,0-.92,1,1.59,1.59,0,0,0-.5,1.41c.17.53.59.59,1,.78a15.21,15.21,0,0,1,2.14,1.06,17,17,0,0,1,5,5,17.86,17.86,0,0,1,1.81,3.5,15.07,15.07,0,0,1,.59,1.95c.14.59.08,1.36.59,1.75a4.13,4.13,0,0,0,1.19.48,11.13,11.13,0,0,1,2.3,1,14.91,14.91,0,0,1,3.19,2.51,10.47,10.47,0,0,1,2.24,3.41c.25.66.44,1.35.66,2a18.91,18.91,0,0,1,.62,2.32q.16.84.27,1.68c0,.34.07.85.37,1.06A5.17,5.17,0,0,0,44.1,50c.14,0,.27,0,.41,0,3.56.35,7.84.31,10.5,8.32.09-.75.2-1.53.36-2.38.87-4.91,2.05-7,2.05-8Z"/>
        <path class="cls-6" d="M31.31,15.92h0l1.32.38C32.17,16.16,31.74,16,31.31,15.92Zm.21,0h0a33.52,33.52,0,0,1,3.9.48A29.67,29.67,0,0,0,31.52,15.93Zm6.1,2.41c.72.37,1.44.76,2.14,1.18C39.06,19.1,38.35,18.7,37.62,18.34Zm17,10.15a5.94,5.94,0,0,0-.78-1.1,8.07,8.07,0,0,1,.77,1.1l.06.09Z"/>
        <path class="cls-7" d="M74.15,46.93l-.06.55a.39.39,0,0,1-.06-.19A.47.47,0,0,1,74.15,46.93Z"/>
        <path class="cls-7" d="M50.5,29.55a40.41,40.41,0,0,1,2.69,4.38A35.43,35.43,0,0,0,50.5,29.55Zm2.38-3.32c.43.47.71.83.86,1A10.2,10.2,0,0,0,52.88,26.23Zm.86,1,.11.14h0ZM54,35.48c.39.86.76,1.72,1.1,2.6C54.73,37.2,54.37,36.33,54,35.48Zm.78,26.39a13.42,13.42,0,0,0,.13-2.28C54.79,60.43,54.75,61.18,54.74,61.87Zm4.35-23.8c-1.52-3.15-2.42-6.35-4.4-9.49,1.58,3.1,2.88,6.34,4.39,9.49.41.85.84,1.69,1.29,2.55C59.93,39.77,59.49,38.92,59.09,38.07Zm13.32,3.76a2.49,2.49,0,0,1-.11-.29,2.47,2.47,0,0,0,.1.29l.06.13A.69.69,0,0,1,72.41,41.83Zm.37,18.7-.16.16.17-.16h0c.09-.32.2-.64.3-1C73,59.88,72.87,60.2,72.78,60.53Zm.36-17.92a.51.51,0,0,1-.22-.09.47.47,0,0,0,.22.1.26.26,0,0,0,.15,0A.39.39,0,0,1,73.14,42.61ZM74,47.29a.39.39,0,0,0,.06.19l.06-.55A.47.47,0,0,0,74,47.29ZM86.87,35.73a3.32,3.32,0,0,1,.85.13A3,3,0,0,0,86.87,35.73Z"/>
        <path class="cls-2" d="M71.68,48.1a.63.63,0,0,1,0,.09,1.4,1.4,0,0,1-1.59.65,1.12,1.12,0,0,1-.4-1.54,1.16,1.16,0,0,1,.62-.49,1.25,1.25,0,0,1,.91,0l.11,0a1.16,1.16,0,0,1,.3.28A.87.87,0,0,1,71.68,48.1Z"/>
        <path class="cls-2" d="M75.61,47.81a.28.28,0,0,1,0,.09,1.39,1.39,0,0,1-1.58.65A1.11,1.11,0,0,1,73.57,47a1.15,1.15,0,0,1,.62-.49,1.24,1.24,0,0,1,.91,0,.43.43,0,0,1,.12,0,1.16,1.16,0,0,1,.3.28A.89.89,0,0,1,75.61,47.81Z"/>
        <path class="cls-8" d="M57.42,47.83Q57.26,46.41,57,45c-.1-.48-.2-.95-.29-1.43s-.16-.71-.26-1.07c-.17-.7-.37-1.4-.58-2.08-.11-.34-.22-.68-.34-1s-.3-.87-.46-1.3c-.33-.84-.67-1.68-1-2.49-.27-.58-.54-1.15-.83-1.69a35.43,35.43,0,0,0-2.69-4.38.35.35,0,0,0,0-.08c-.25-.35-.51-.71-.78-1.06s-.55-.71-.85-1.06-.58-.69-.88-1-.55-.61-.83-.9a2.08,2.08,0,0,0-.21-.21c-.22-.23-.45-.46-.68-.68s-.58-.57-.88-.84-.48-.44-.72-.64l-.3-.26c-.22-.18-.42-.36-.64-.52s-.3-.26-.45-.37q-.48-.37-1-.72c-.37-.26-.74-.53-1.12-.78s-.62-.41-.93-.6l-.46-.28c-.7-.42-1.42-.81-2.14-1.18-.4-.2-.81-.4-1.23-.59l-1.24-.53-1.27-.49c-.43-.15-.86-.3-1.29-.43L31.37,16a.63.63,0,0,0-.19,0q-1.58-.08-3.27,0l-.78.12-.64.12a18.69,18.69,0,0,0-4.42,1.48c-.23.13-.45.27-.64.4a3.2,3.2,0,0,0-.27.22,2,2,0,0,0-.27.22,9.7,9.7,0,0,0-.92,1,1.59,1.59,0,0,0-.5,1.41c.17.53.59.59,1,.78a15.21,15.21,0,0,1,2.14,1.06,17,17,0,0,1,5,5,17.86,17.86,0,0,1,1.81,3.5,15.07,15.07,0,0,1,.59,1.95c.14.59.08,1.36.59,1.75a4.13,4.13,0,0,0,1.19.48,11.13,11.13,0,0,1,2.3,1,14.91,14.91,0,0,1,3.19,2.51,10.47,10.47,0,0,1,2.24,3.41c.25.66.44,1.35.66,2a18.91,18.91,0,0,1,.62,2.32q.16.84.27,1.68c0,.34.07.85.37,1.06A5.17,5.17,0,0,0,44.1,50c.14,0,.27,0,.41,0,3.56.35,7.84.31,10.5,8.32.09-.75.2-1.53.36-2.38.87-4.91,2.05-7,2.05-8Z"/>
        <path class="cls-6" d="M113,57.42c-.06.09-.14,0-.3-.07l0,0c-.44-.23-.88-.46-1.35-.67-.23-.11-.47-.2-.7-.29l-.37-.15-.73-.24c-.24-.08-.48-.13-.73-.19a7,7,0,0,0-4.66.41c-.16.08-.42.19-.62.3s-.44.27-.74.44a8,8,0,0,0-1.23.94,7.6,7.6,0,0,0-.66.74c-.1.14-.19.27-.28.42a.71.71,0,0,1-.37.32,1.61,1.61,0,0,1-1.28-.12l-.73-.35-.11,0a10.11,10.11,0,0,0-2.66-1.21A11.26,11.26,0,0,0,89.65,57a9.6,9.6,0,0,0-3.37,1.17.74.74,0,0,1-.13.08c-.61.38-1,1.06-1.69,1.42a1,1,0,0,1-1.08,0L83,59.4a3.83,3.83,0,0,0-.42-.28,1.87,1.87,0,0,0-.39-.22,2.85,2.85,0,0,1-.31-.12,5.46,5.46,0,0,0-.67-.26,7.77,7.77,0,0,0-1.35-.4A5.12,5.12,0,0,0,77.56,58a6.24,6.24,0,0,0-1.35.31l-.41.17a7.28,7.28,0,0,0-1,.44l-.45.27a8.47,8.47,0,0,0-1.58,1.3c.09-.33.2-.65.31-1a47.77,47.77,0,0,1,5.37-11.71,22.17,22.17,0,0,1,3-3.79c9.76-9.34,21.81-3,30.67,9.63.07.25.14.51.2.78.15.63.27,1.29.4,1.95C112.82,56.74,112.89,57.08,113,57.42Z"/>
      </g>
    </g>
  </g>
</svg>
